<svg xmlns="http://www.w3.org/2000/svg" viewBox="0 0 800 600" width="800" height="600">
            <defs>
                <style>
                    .title { font: bold 16px sans-serif; fill: #2c5aa0; }
                    .step { font: 12px sans-serif; fill: white; }
                    .step-bg { fill: #2c5aa0; stroke: #34495e; stroke-width: 2; }
                    .decision-bg { fill: #e74c3c; stroke: #34495e; stroke-width: 2; }
                    .process-bg { fill: #3498db; stroke: #34495e; stroke-width: 2; }
                    .arrow { stroke: #34495e; stroke-width: 2; fill: none; marker-end: url(#arrowhead); }
                </style>
                <defs>
                    <marker id="arrowhead" markerWidth="10" markerHeight="7" refX="9" refY="3.5" orient="auto">
                        <polygon points="0 0, 10 3.5, 0 7" fill="#34495e"/>
                    </marker>
                </defs>
            </defs>
            
            <!-- 标题 -->
            <text x="400" y="30" text-anchor="middle" class="title">医美内容合规审核流程</text>
            
            <!-- 开始 -->
            <ellipse cx="400" cy="80" rx="60" ry="25" class="step-bg"/>
            <text x="400" y="87" text-anchor="middle" class="step">内容创作完成</text>
            
            <!-- 自查阶段 -->
            <rect x="330" y="130" width="140" height="40" rx="5" class="process-bg"/>
            <text x="400" y="145" text-anchor="middle" class="step">自查阶段</text>
            <text x="400" y="160" text-anchor="middle" class="step">禁用词检查</text>
            
            <!-- 专业审核 -->
            <rect x="330" y="200" width="140" height="40" rx="5" class="process-bg"/>
            <text x="400" y="215" text-anchor="middle" class="step">专业审核</text>
            <text x="400" y="230" text-anchor="middle" class="step">医学准确性</text>
            
            <!-- 决策点1 -->
            <polygon points="400,270 450,290 400,310 350,290" class="decision-bg"/>
            <text x="400" y="295" text-anchor="middle" class="step">是否</text>
            <text x="400" y="308" text-anchor="middle" class="step">通过？</text>
            
            <!-- 修改 -->
            <rect x="530" y="270" width="100" height="40" rx="5" class="step-bg"/>
            <text x="580" y="285" text-anchor="middle" class="step">内容修改</text>
            <text x="580" y="300" text-anchor="middle" class="step">重新审核</text>
            
            <!-- 合规审核 -->
            <rect x="330" y="350" width="140" height="40" rx="5" class="process-bg"/>
            <text x="400" y="365" text-anchor="middle" class="step">合规审核</text>
            <text x="400" y="380" text-anchor="middle" class="step">法规符合性</text>
            
            <!-- 决策点2 -->
            <polygon points="400,420 450,440 400,460 350,440" class="decision-bg"/>
            <text x="400" y="445" text-anchor="middle" class="step">是否</text>
            <text x="400" y="458" text-anchor="middle" class="step">合规？</text>
            
            <!-- 发布 -->
            <ellipse cx="400" cy="520" rx="60" ry="25" class="step-bg"/>
            <text x="400" y="527" text-anchor="middle" class="step">内容发布</text>
            
            <!-- 连接线 -->
            <line x1="400" y1="105" x2="400" y2="130" class="arrow"/>
            <line x1="400" y1="170" x2="400" y2="200" class="arrow"/>
            <line x1="400" y1="240" x2="400" y2="270" class="arrow"/>
            <line x1="450" y1="290" x2="530" y2="290" class="arrow"/>
            <line x1="580" y1="270" x2="580" y2="220" class="arrow"/>
            <line x1="530" y1="220" x2="470" y2="220" class="arrow"/>
            <line x1="400" y1="310" x2="400" y2="350" class="arrow"/>
            <line x1="400" y1="390" x2="400" y2="420" class="arrow"/>
            <line x1="450" y1="440" x2="580" y2="440" class="arrow"/>
            <line x1="580" y1="440" x2="580" y2="370" class="arrow"/>
            <line x1="530" y1="370" x2="470" y2="370" class="arrow"/>
            <line x1="400" y1="460" x2="400" y2="495" class="arrow"/>
            
            <!-- 标签 -->
            <text x="490" y="285" class="step" fill="#34495e">不通过</text>
            <text x="490" y="435" class="step" fill="#34495e">不合规</text>
            <text x="420" y="335" class="step" fill="#34495e">通过</text>
            <text x="420" y="485" class="step" fill="#34495e">合规</text>
        </svg>